<svg width="3459" height="1000" viewBox="0 0 3459 1000" fill="none" xmlns="http://www.w3.org/2000/svg">
<rect width="1000" height="1000" rx="68" fill="#0172FF"/>
<path d="M399.565 832.44H242.815L206.335 951H148.195L271.315 573.09C274.355 562.83 281.385 557.7 292.405 557.7H350.545C361.945 557.7 368.785 562.83 371.065 573.09L494.755 951H436.045L399.565 832.44ZM384.745 782.85L338.575 633.51C337.435 630.09 335.725 624.77 333.445 617.55C331.545 610.33 330.025 605.01 328.885 601.59H313.495L304.375 633.51L258.205 782.85H384.745ZM649.212 557.7V864.93C649.212 894.95 642.562 917.75 629.262 933.33C615.962 948.91 596.772 956.51 571.692 956.13C549.272 956.13 530.652 953.66 515.832 948.72L522.102 907.68H550.032C578.152 907.68 592.212 894.38 592.212 867.78V557.7H649.212ZM854.853 788.55L775.053 766.32C746.933 758.72 726.793 745.99 714.633 728.13C702.853 709.89 696.963 685.38 696.963 654.6C696.963 632.18 699.243 614.13 703.803 600.45C708.743 586.39 717.103 575.75 728.883 568.53C740.663 561.31 753.773 556.56 768.213 554.28C782.653 552 802.033 550.86 826.353 550.86C872.713 550.86 912.233 554.85 944.913 562.83L941.493 604.44C886.393 602.54 848.773 601.59 828.633 601.59C798.993 601.59 779.233 604.63 769.353 610.71C759.473 616.41 754.533 631.61 754.533 656.31C754.533 675.69 757.953 689.37 764.793 697.35C772.013 705.33 784.363 711.6 801.843 716.16L879.933 737.82C909.193 745.8 929.713 758.72 941.493 776.58C953.653 794.44 959.733 818.76 959.733 849.54C959.733 892.86 949.853 921.74 930.093 936.18C910.333 950.62 875.563 957.84 825.783 957.84C783.983 957.84 742.753 954.04 702.093 946.44L706.083 904.26C765.363 906.16 805.643 907.11 826.923 907.11C856.563 906.73 876.323 902.93 886.203 895.71C896.463 888.49 901.593 872.91 901.593 848.97C901.593 828.83 898.173 814.96 891.333 807.36C884.493 799.38 872.333 793.11 854.853 788.55Z" fill="white"/>
<path d="M1490 616.2H1325L1286.6 741H1225.4L1355 343.2C1358.2 332.4 1365.6 327 1377.2 327H1438.4C1450.4 327 1457.6 332.4 1460 343.2L1590.2 741H1528.4L1490 616.2ZM1474.4 564L1425.8 406.8C1424.6 403.2 1422.8 397.6 1420.4 390C1418.4 382.4 1416.8 376.8 1415.6 373.2H1399.4L1389.8 406.8L1341.2 564H1474.4ZM1863.19 693L1868.59 732C1838.99 742.8 1804.99 748.2 1766.59 748.2C1715.39 748.2 1679.19 736.8 1657.99 714C1637.19 690.8 1626.79 651 1626.79 594.6C1626.79 538.2 1637.19 498.4 1657.99 475.2C1679.19 452 1715.39 440.4 1766.59 440.4C1805.79 440.4 1838.19 445.4 1863.79 455.4L1855.99 492.6C1825.99 490.6 1799.59 489.6 1776.79 489.6C1743.19 489.6 1719.79 497 1706.59 511.8C1693.79 526.6 1687.39 554.2 1687.39 594.6C1687.39 635 1693.79 662.6 1706.59 677.4C1719.79 692.2 1743.19 699.6 1776.79 699.6C1809.59 699.6 1838.39 697.4 1863.19 693ZM2097.31 693.6L2103.91 738.6C2085.51 743.8 2062.51 746.4 2034.91 746.4C2010.11 746.4 1991.11 739.4 1977.91 725.4C1965.11 711 1958.71 690.6 1958.71 664.2V493.2H1905.31V451.2L1958.71 448.8V362.4H2016.31V448.2H2106.91V493.2H2016.31V656.4C2016.31 670 2019.11 679.6 2024.71 685.2C2030.71 690.8 2040.71 693.6 2054.71 693.6H2097.31ZM2185.33 323.4H2212.93C2224.13 323.4 2229.73 329 2229.73 340.2V373.8C2229.73 385.4 2224.13 391.2 2212.93 391.2H2185.33C2174.13 391.2 2168.53 385.4 2168.53 373.8V340.2C2168.53 329 2174.13 323.4 2185.33 323.4ZM2227.93 741H2170.33V448.2H2227.93V741ZM2586.07 448.2L2481.67 726.6C2477.67 736.2 2470.87 741 2461.27 741H2409.07C2399.07 741 2392.47 736.2 2389.27 726.6L2284.87 448.2H2346.67L2415.07 649.8L2431.27 700.2H2439.07L2456.47 649.8L2524.27 448.2H2586.07ZM2815.48 622.8H2684.08C2686.88 653.2 2694.68 673.6 2707.48 684C2720.68 694.4 2742.08 699.6 2771.68 699.6C2797.68 699.6 2831.88 697.2 2874.28 692.4L2879.68 730.8C2853.28 742.4 2814.68 748.2 2763.88 748.2C2712.68 748.2 2676.28 736.6 2654.68 713.4C2633.48 690.2 2622.88 650.4 2622.88 594C2622.88 537.2 2633.28 497.4 2654.08 474.6C2675.28 451.8 2710.08 440.4 2758.48 440.4C2803.28 440.4 2835.88 448.6 2856.28 465C2876.68 481.4 2886.88 506 2886.88 538.8C2886.88 594.8 2863.08 622.8 2815.48 622.8ZM2683.48 577.8H2799.88C2819.08 577.8 2828.68 564.8 2828.68 538.8C2828.28 520.8 2823.08 508.2 2813.08 501C2803.48 493.4 2786.28 489.6 2761.48 489.6C2732.68 489.6 2712.68 495.8 2701.48 508.2C2690.28 520.2 2684.28 543.4 2683.48 577.8ZM3072.32 327V650.4C3072.32 682 3065.32 706 3051.32 722.4C3037.32 738.8 3017.12 746.8 2990.72 746.4C2967.12 746.4 2947.52 743.8 2931.92 738.6L2938.52 695.4H2967.92C2997.52 695.4 3012.32 681.4 3012.32 653.4V327H3072.32ZM3318.78 570L3234.78 546.6C3205.18 538.6 3183.98 525.2 3171.18 506.4C3158.78 487.2 3152.58 461.4 3152.58 429C3152.58 405.4 3154.98 386.4 3159.78 372C3164.98 357.2 3173.78 346 3186.18 338.4C3198.58 330.8 3212.38 325.8 3227.58 323.4C3242.78 321 3263.18 319.8 3288.78 319.8C3337.58 319.8 3379.18 324 3413.58 332.4L3409.98 376.2C3351.98 374.2 3312.38 373.2 3291.18 373.2C3259.98 373.2 3239.18 376.4 3228.78 382.8C3218.38 388.8 3213.18 404.8 3213.18 430.8C3213.18 451.2 3216.78 465.6 3223.98 474C3231.58 482.4 3244.58 489 3262.98 493.8L3345.18 516.6C3375.98 525 3397.58 538.6 3409.98 557.4C3422.78 576.2 3429.18 601.8 3429.18 634.2C3429.18 679.8 3418.78 710.2 3397.98 725.4C3377.18 740.6 3340.58 748.2 3288.18 748.2C3244.18 748.2 3200.78 744.2 3157.98 736.2L3162.18 691.8C3224.58 693.8 3266.98 694.8 3289.38 694.8C3320.58 694.4 3341.38 690.4 3351.78 682.8C3362.58 675.2 3367.98 658.8 3367.98 633.6C3367.98 612.4 3364.38 597.8 3357.18 589.8C3349.98 581.4 3337.18 574.8 3318.78 570Z" fill="#0172FF"/>
</svg>
